<?xml version="1.0" encoding="utf-8"?>
<!-- Generated by Mocodo 4.3.3 -->
<svg width="1166" height="608" viewBox="0 0 1166 608" xmlns="http://www.w3.org/2000/svg">
<rect x="0" y="0" width="1166" height="608" fill="#FFFFFF" stroke="none" stroke-width="0"/>

<!-- Association FINANCE -->
<g>
	<line x1="86" y1="116" x2="233" y2="116" stroke="#000000" stroke-width="1"/>
	<line x1="397" y1="116" x2="233" y2="116" stroke="#000000" stroke-width="1"/>
	<g>
		<path d="M256 90 a14 14 90 0 1 14 14 V116 h-74 V104 a14 14 90 0 1 14 -14" fill="#FFFFFF" stroke="#FFFFFF" stroke-width="0"/>
		<path d="M270 116 v12 a14 14 90 0 1 -14 14 H210 a14 14 90 0 1 -14 -14 V116 H74" fill="#FFFFFF" stroke="#FFFFFF" stroke-width="0"/>
		<rect x="196" y="90" width="74" height="52" fill="none" rx="14" stroke="#000000" stroke-width="1.5"/>
		<line x1="196" y1="116" x2="270" y2="116" stroke="#000000" stroke-width="1"/>
		<text x="203" y="108.6" fill="#000000" font-family="Courier New" font-size="14">Finance</text>
	</g>
	<text x="168" y="132" fill="#000000" font-family="Courier New" font-size="12">0,N</text>
	<text x="275" y="132" fill="#000000" font-family="Courier New" font-size="12">1,1</text>
</g>

<!-- Association CONTIENT -->
<g>
	<line x1="397" y1="116" x2="565" y2="116" stroke="#000000" stroke-width="1"/>
	<line x1="721" y1="116" x2="565" y2="116" stroke="#000000" stroke-width="1"/>
	<g>
		<path d="M592 90 a14 14 90 0 1 14 14 V116 h-82 V104 a14 14 90 0 1 14 -14" fill="#FFFFFF" stroke="#FFFFFF" stroke-width="0"/>
		<path d="M606 116 v12 a14 14 90 0 1 -14 14 H538 a14 14 90 0 1 -14 -14 V116 H82" fill="#FFFFFF" stroke="#FFFFFF" stroke-width="0"/>
		<rect x="524" y="90" width="82" height="52" fill="none" rx="14" stroke="#000000" stroke-width="1.5"/>
		<line x1="524" y1="116" x2="606" y2="116" stroke="#000000" stroke-width="1"/>
		<text x="531" y="108.6" fill="#000000" font-family="Courier New" font-size="14">Contient</text>
	</g>
	<text x="496" y="132" fill="#000000" font-family="Courier New" font-size="12">1,1</text>
	<text x="611" y="132" fill="#000000" font-family="Courier New" font-size="12">1,N</text>
</g>

<!-- Association EST_EQUIPE_DE -->
<g>
	<line x1="721" y1="116" x2="898" y2="116" stroke="#000000" stroke-width="1"/>
	<line x1="1075" y1="116" x2="898" y2="116" stroke="#000000" stroke-width="1"/>
	<g>
		<path d="M946 90 a14 14 90 0 1 14 14 V116 h-124 V104 a14 14 90 0 1 14 -14" fill="#FFFFFF" stroke="#FFFFFF" stroke-width="0"/>
		<path d="M960 116 v12 a14 14 90 0 1 -14 14 H850 a14 14 90 0 1 -14 -14 V116 H124" fill="#FFFFFF" stroke="#FFFFFF" stroke-width="0"/>
		<rect x="836" y="90" width="124" height="52" fill="none" rx="14" stroke="#000000" stroke-width="1.5"/>
		<line x1="836" y1="116" x2="960" y2="116" stroke="#000000" stroke-width="1"/>
		<text x="843" y="108.6" fill="#000000" font-family="Courier New" font-size="14">Est_equipe_de</text>
	</g>
	<text x="808" y="132" fill="#000000" font-family="Courier New" font-size="12">0,N</text>
	<text x="965" y="132" fill="#000000" font-family="Courier New" font-size="12">0,N</text>
</g>

<!-- Association EXPLOITE -->
<g>
	<line x1="397" y1="376" x2="397" y2="273" stroke="#000000" stroke-width="1"/>
	<line x1="397" y1="116" x2="397" y2="273" stroke="#000000" stroke-width="1"/>
	<g>
		<path d="M424 247 a14 14 90 0 1 14 14 V273 h-82 V261 a14 14 90 0 1 14 -14" fill="#FFFFFF" stroke="#FFFFFF" stroke-width="0"/>
		<path d="M438 273 v12 a14 14 90 0 1 -14 14 H370 a14 14 90 0 1 -14 -14 V273 H82" fill="#FFFFFF" stroke="#FFFFFF" stroke-width="0"/>
		<rect x="356" y="247" width="82" height="52" fill="none" rx="14" stroke="#000000" stroke-width="1.5"/>
		<line x1="356" y1="273" x2="438" y2="273" stroke="#000000" stroke-width="1"/>
		<text x="363" y="265.6" fill="#000000" font-family="Courier New" font-size="14">Exploite</text>
	</g>
	<text x="402" y="315" fill="#000000" font-family="Courier New" font-size="12">0,N</text>
	<text x="402" y="239" fill="#000000" font-family="Courier New" font-size="12">1,1</text>
</g>

<!-- Association A_HORAIRES -->
<g>
	<line x1="721" y1="116" x2="721" y2="273" stroke="#000000" stroke-width="1"/>
	<line x1="721" y1="376" x2="721" y2="273" stroke="#000000" stroke-width="1"/>
	<g>
		<path d="M757 247 a14 14 90 0 1 14 14 V273 h-100 V261 a14 14 90 0 1 14 -14" fill="#FFFFFF" stroke="#FFFFFF" stroke-width="0"/>
		<path d="M771 273 v12 a14 14 90 0 1 -14 14 H685 a14 14 90 0 1 -14 -14 V273 H100" fill="#FFFFFF" stroke="#FFFFFF" stroke-width="0"/>
		<rect x="671" y="247" width="100" height="52" fill="none" rx="14" stroke="#000000" stroke-width="1.5"/>
		<line x1="671" y1="273" x2="771" y2="273" stroke="#000000" stroke-width="1"/>
		<text x="679" y="265.6" fill="#000000" font-family="Courier New" font-size="14">A_horaires</text>
	</g>
	<text x="726" y="221" fill="#000000" font-family="Courier New" font-size="12">0,1</text>
	<text x="726" y="333" fill="#000000" font-family="Courier New" font-size="12">0,N</text>
</g>

<!-- Association POSSEDE -->
<g>
	<line x1="397" y1="564" x2="397" y2="479" stroke="#000000" stroke-width="1"/>
	<line x1="397" y1="116" x2="397" y2="479" stroke="#000000" stroke-width="1"/>
	<g>
		<path d="M420 453 a14 14 90 0 1 14 14 V479 h-74 V467 a14 14 90 0 1 14 -14" fill="#FFFFFF" stroke="#FFFFFF" stroke-width="0"/>
		<path d="M434 479 v12 a14 14 90 0 1 -14 14 H374 a14 14 90 0 1 -14 -14 V479 H74" fill="#FFFFFF" stroke="#FFFFFF" stroke-width="0"/>
		<rect x="360" y="453" width="74" height="52" fill="none" rx="14" stroke="#000000" stroke-width="1.5"/>
		<line x1="360" y1="479" x2="434" y2="479" stroke="#000000" stroke-width="1"/>
		<text x="367" y="471.6" fill="#000000" font-family="Courier New" font-size="14">Possede</text>
	</g>
	<text x="402" y="521" fill="#000000" font-family="Courier New" font-size="12">0,N</text>
	<text x="402" y="239" fill="#000000" font-family="Courier New" font-size="12">1,1</text>
</g>

<!-- Association A_CONDITION -->
<g>
	<line x1="721" y1="116" x2="721" y2="479" stroke="#000000" stroke-width="1"/>
	<line x1="721" y1="564" x2="721" y2="479" stroke="#000000" stroke-width="1"/>
	<g>
		<path d="M761 453 a14 14 90 0 1 14 14 V479 h-108 V467 a14 14 90 0 1 14 -14" fill="#FFFFFF" stroke="#FFFFFF" stroke-width="0"/>
		<path d="M775 479 v12 a14 14 90 0 1 -14 14 H681 a14 14 90 0 1 -14 -14 V479 H108" fill="#FFFFFF" stroke="#FFFFFF" stroke-width="0"/>
		<rect x="667" y="453" width="108" height="52" fill="none" rx="14" stroke="#000000" stroke-width="1.5"/>
		<line x1="667" y1="479" x2="775" y2="479" stroke="#000000" stroke-width="1"/>
		<text x="674" y="471.6" fill="#000000" font-family="Courier New" font-size="14">A_condition</text>
	</g>
	<text x="726" y="221" fill="#000000" font-family="Courier New" font-size="12">0,1</text>
	<text x="726" y="521" fill="#000000" font-family="Courier New" font-size="12">0,N</text>
</g>

<!-- Entity AMENAGEUR -->
<g>
	<g>
		<rect x="9" y="63" width="154" height="26" fill="#FFFFFF" stroke="none" stroke-width="0" opacity="1"/>
		<rect x="9" y="89" width="154" height="80" fill="#FFFFFF" stroke="none" stroke-width="0" opacity="1"/>
		<rect x="9" y="63" width="154" height="106" fill="none" stroke="#000000" stroke-width="1.5" opacity="1"/>
		<line x1="9" y1="89" x2="163" y2="89" stroke="#000000" stroke-width="1"/>
	</g>
	<text x="48" y="81.6" fill="#000000" font-family="Courier New" font-size="14">AMENAGEUR</text>
	<text x="14" y="107.6" fill="#000000" font-family="Courier New" font-size="14">id_amenageur</text>
	<line x1="14" y1="110" x2="116" y2="110" stroke="#000000" stroke-width="1"/>
	<text x="14" y="125.6" fill="#000000" font-family="Courier New" font-size="14">nom_amenageur</text>
	<text x="14" y="143.6" fill="#000000" font-family="Courier New" font-size="14">siren_amenageur</text>
	<text x="14" y="161.6" fill="#000000" font-family="Courier New" font-size="14">contact_amenageur</text>
</g>

<!-- Entity STATION -->
<g>
	<g>
		<rect x="303" y="9" width="188" height="26" fill="#FFFFFF" stroke="none" stroke-width="0" opacity="1"/>
		<rect x="303" y="35" width="188" height="188" fill="#FFFFFF" stroke="none" stroke-width="0" opacity="1"/>
		<rect x="303" y="9" width="188" height="214" fill="none" stroke="#000000" stroke-width="1.5" opacity="1"/>
		<line x1="303" y1="35" x2="491" y2="35" stroke="#000000" stroke-width="1"/>
	</g>
	<text x="367" y="27.6" fill="#000000" font-family="Courier New" font-size="14">STATION</text>
	<text x="308" y="53.6" fill="#000000" font-family="Courier New" font-size="14">id_station_locale</text>
	<line x1="308" y1="56" x2="452" y2="56" stroke="#000000" stroke-width="1"/>
	<text x="308" y="71.6" fill="#000000" font-family="Courier New" font-size="14">id_station_itinerance</text>
	<text x="308" y="89.6" fill="#000000" font-family="Courier New" font-size="14">nom_station</text>
	<text x="308" y="107.6" fill="#000000" font-family="Courier New" font-size="14">implantation_station</text>
	<text x="308" y="125.6" fill="#000000" font-family="Courier New" font-size="14">adresse_station</text>
	<text x="308" y="143.6" fill="#000000" font-family="Courier New" font-size="14">code_insee</text>
	<text x="308" y="161.6" fill="#000000" font-family="Courier New" font-size="14">code_dep</text>
	<text x="308" y="179.6" fill="#000000" font-family="Courier New" font-size="14">longitude</text>
	<text x="308" y="197.6" fill="#000000" font-family="Courier New" font-size="14">latitude</text>
	<text x="308" y="215.6" fill="#000000" font-family="Courier New" font-size="14">raccordement</text>
</g>

<!-- Entity PDC -->
<g>
	<g>
		<rect x="639" y="27" width="164" height="26" fill="#FFFFFF" stroke="none" stroke-width="0" opacity="1"/>
		<rect x="639" y="53" width="164" height="152" fill="#FFFFFF" stroke="none" stroke-width="0" opacity="1"/>
		<rect x="639" y="27" width="164" height="178" fill="none" stroke="#000000" stroke-width="1.5" opacity="1"/>
		<line x1="639" y1="53" x2="803" y2="53" stroke="#000000" stroke-width="1"/>
	</g>
	<text x="708" y="45.6" fill="#000000" font-family="Courier New" font-size="14">PDC</text>
	<text x="644" y="71.6" fill="#000000" font-family="Courier New" font-size="14">id_pdc</text>
	<line x1="644" y1="74" x2="696" y2="74" stroke="#000000" stroke-width="1"/>
	<text x="644" y="89.6" fill="#000000" font-family="Courier New" font-size="14">puissance_nominale</text>
	<text x="644" y="107.6" fill="#000000" font-family="Courier New" font-size="14">date_mise_service</text>
	<text x="644" y="125.6" fill="#000000" font-family="Courier New" font-size="14">cable_t2_attache</text>
	<text x="644" y="143.6" fill="#000000" font-family="Courier New" font-size="14">gratuit</text>
	<text x="644" y="161.6" fill="#000000" font-family="Courier New" font-size="14">paiment_acte</text>
	<text x="644" y="179.6" fill="#000000" font-family="Courier New" font-size="14">paiment_cb</text>
	<text x="644" y="197.6" fill="#000000" font-family="Courier New" font-size="14">tarification</text>
</g>

<!-- Entity TYPE_PRISE -->
<g>
	<g>
		<rect x="993" y="81" width="164" height="26" fill="#FFFFFF" stroke="none" stroke-width="0" opacity="1"/>
		<rect x="993" y="107" width="164" height="44" fill="#FFFFFF" stroke="none" stroke-width="0" opacity="1"/>
		<rect x="993" y="81" width="164" height="70" fill="none" stroke="#000000" stroke-width="1.5" opacity="1"/>
		<line x1="993" y1="107" x2="1157" y2="107" stroke="#000000" stroke-width="1"/>
	</g>
	<text x="1033" y="99.6" fill="#000000" font-family="Courier New" font-size="14">TYPE_PRISE</text>
	<text x="998" y="125.6" fill="#000000" font-family="Courier New" font-size="14">id_type_prise</text>
	<line x1="998" y1="128" x2="1108" y2="128" stroke="#000000" stroke-width="1"/>
	<text x="998" y="143.6" fill="#000000" font-family="Courier New" font-size="14">libelle_type_prise</text>
</g>

<!-- Entity OPERATEUR -->
<g>
	<g>
		<rect x="320" y="323" width="154" height="26" fill="#FFFFFF" stroke="none" stroke-width="0" opacity="1"/>
		<rect x="320" y="349" width="154" height="80" fill="#FFFFFF" stroke="none" stroke-width="0" opacity="1"/>
		<rect x="320" y="323" width="154" height="106" fill="none" stroke="#000000" stroke-width="1.5" opacity="1"/>
		<line x1="320" y1="349" x2="474" y2="349" stroke="#000000" stroke-width="1"/>
	</g>
	<text x="359" y="341.6" fill="#000000" font-family="Courier New" font-size="14">OPERATEUR</text>
	<text x="325" y="367.6" fill="#000000" font-family="Courier New" font-size="14">id_operateur</text>
	<line x1="325" y1="370" x2="427" y2="370" stroke="#000000" stroke-width="1"/>
	<text x="325" y="385.6" fill="#000000" font-family="Courier New" font-size="14">nom_operateur</text>
	<text x="325" y="403.6" fill="#000000" font-family="Courier New" font-size="14">contact_operateur</text>
	<text x="325" y="421.6" fill="#000000" font-family="Courier New" font-size="14">tel_operateur</text>
</g>

<!-- Entity HORAIRES -->
<g>
	<g>
		<rect x="669" y="341" width="104" height="26" fill="#FFFFFF" stroke="none" stroke-width="0" opacity="1"/>
		<rect x="669" y="367" width="104" height="44" fill="#FFFFFF" stroke="none" stroke-width="0" opacity="1"/>
		<rect x="669" y="341" width="104" height="70" fill="none" stroke="#000000" stroke-width="1.5" opacity="1"/>
		<line x1="669" y1="367" x2="773" y2="367" stroke="#000000" stroke-width="1"/>
	</g>
	<text x="687" y="359.6" fill="#000000" font-family="Courier New" font-size="14">HORAIRES</text>
	<text x="674" y="385.6" fill="#000000" font-family="Courier New" font-size="14">id_horaires</text>
	<line x1="674" y1="388" x2="768" y2="388" stroke="#000000" stroke-width="1"/>
	<text x="674" y="403.6" fill="#000000" font-family="Courier New" font-size="14">horaires</text>
</g>

<!-- Entity ENSEIGNE -->
<g>
	<g>
		<rect x="341" y="529" width="112" height="26" fill="#FFFFFF" stroke="none" stroke-width="0" opacity="1"/>
		<rect x="341" y="555" width="112" height="44" fill="#FFFFFF" stroke="none" stroke-width="0" opacity="1"/>
		<rect x="341" y="529" width="112" height="70" fill="none" stroke="#000000" stroke-width="1.5" opacity="1"/>
		<line x1="341" y1="555" x2="453" y2="555" stroke="#000000" stroke-width="1"/>
	</g>
	<text x="363" y="547.6" fill="#000000" font-family="Courier New" font-size="14">ENSEIGNE</text>
	<text x="346" y="573.6" fill="#000000" font-family="Courier New" font-size="14">id_enseigne</text>
	<line x1="346" y1="576" x2="440" y2="576" stroke="#000000" stroke-width="1"/>
	<text x="346" y="591.6" fill="#000000" font-family="Courier New" font-size="14">nom_enseigne</text>
</g>

<!-- Entity CONDITION_D_ACCES -->
<g>
	<g>
		<rect x="644" y="529" width="154" height="26" fill="#FFFFFF" stroke="none" stroke-width="0" opacity="1"/>
		<rect x="644" y="555" width="154" height="44" fill="#FFFFFF" stroke="none" stroke-width="0" opacity="1"/>
		<rect x="644" y="529" width="154" height="70" fill="none" stroke="#000000" stroke-width="1.5" opacity="1"/>
		<line x1="644" y1="555" x2="798" y2="555" stroke="#000000" stroke-width="1"/>
	</g>
	<text x="649" y="547.6" fill="#000000" font-family="Courier New" font-size="14">CONDITION_D_ACCES</text>
	<text x="649" y="573.6" fill="#000000" font-family="Courier New" font-size="14">id_condition</text>
	<line x1="649" y1="576" x2="751" y2="576" stroke="#000000" stroke-width="1"/>
	<text x="649" y="591.6" fill="#000000" font-family="Courier New" font-size="14">condition_acces</text>
</g>
</svg>